<svg xmlns="http://www.w3.org/2000/svg" viewBox="0 0 192 192" width="192" height="192">
  <defs>
    <linearGradient id="bg" x1="0%" y1="0%" x2="100%" y2="100%">
      <stop offset="0%" style="stop-color:#667eea;stop-opacity:1" />
      <stop offset="100%" style="stop-color:#764ba2;stop-opacity:1" />
    </linearGradient>
  </defs>

  <!-- Hintergrund -->
  <rect width="192" height="192" fill="url(#bg)" rx="40"/>

  <!-- Eiswaffel -->
  <path d="M 76 110 L 96 160 L 116 110 Z" fill="#D2691E" stroke="#8B4513" stroke-width="3"/>
  <line x1="76" y1="120" x2="116" y2="120" stroke="#8B4513" stroke-width="2"/>
  <line x1="78" y1="130" x2="114" y2="130" stroke="#8B4513" stroke-width="2"/>
  <line x1="82" y1="140" x2="110" y2="140" stroke="#8B4513" stroke-width="2"/>
  <line x1="86" y1="150" x2="106" y2="150" stroke="#8B4513" stroke-width="2"/>

  <!-- Eiskugeln -->
  <circle cx="96" cy="105" r="22" fill="#FF69B4" stroke="#FF1493" stroke-width="2.5"/>
  <ellipse cx="90" cy="99" rx="8" ry="5" fill="#FFC0CB" opacity="0.6"/>

  <circle cx="96" cy="70" r="22" fill="#FFA500" stroke="#FF8C00" stroke-width="2.5"/>
  <ellipse cx="90" cy="64" rx="8" ry="5" fill="#FFD700" opacity="0.6"/>

  <circle cx="96" cy="35" r="22" fill="#FFD700" stroke="#FFA500" stroke-width="2.5"/>
  <ellipse cx="90" cy="29" rx="8" ry="5" fill="#FFFFE0" opacity="0.7"/>

  <!-- Streusel -->
  <circle cx="85" cy="35" r="3" fill="#FF6347"/>
  <circle cx="105" cy="38" r="3" fill="#4169E1"/>
  <circle cx="91" cy="43" r="3" fill="#32CD32"/>

  <circle cx="87" cy="70" r="3" fill="#4169E1"/>
  <circle cx="108" cy="72" r="3" fill="#FF6347"/>
  <circle cx="93" cy="78" r="3" fill="#FFD700"/>

  <circle cx="83" cy="105" r="3" fill="#32CD32"/>
  <circle cx="105" cy="108" r="3" fill="#4169E1"/>
</svg>
